<svg viewBox="0 0 48 48" xml:space="preserve" xmlns="http://www.w3.org/2000/svg"><circle cx="24" cy="30" r="2" fill="#b28451" class="fill-000000"></circle><path d="M24 38a1 1 0 0 1-1-1v-6a1 1 0 1 1 2 0v6a1 1 0 0 1-1 1z" fill="#b28451" class="fill-000000"></path><path d="M42 48H6V18h36v30zM8 46h32V20H8v26z" fill="#b28451" class="fill-000000"></path><path d="M36 19h-2v-7c0-5.514-4.486-10-10-10S14 6.486 14 12v7h-2v-7c0-6.617 5.383-12 12-12s12 5.383 12 12v7z" fill="#b28451" class="fill-000000"></path></svg>